<svg width="36" height="36" viewBox="0 0 36 36" fill="none" xmlns="http://www.w3.org/2000/svg">
<rect width="36" height="36" rx="18" fill="white"/>
<path d="M21.6338 19.2749C24.729 18.8121 27.4299 19.6108 27.7616 19.7184L27.8557 19.7489L27.8637 19.6503L28.0016 17.9594L28.0073 17.8896L27.9385 17.8762C27.9302 17.8746 27.9199 17.8726 27.9078 17.8702C27.4424 17.7787 24.2326 17.1476 20.9784 17.5466C20.9131 17.3979 20.8477 17.2425 20.782 17.0865L20.7816 17.0857C20.5807 16.6226 20.3633 16.1599 20.1454 15.7057C23.8212 14.1844 25.4917 12.0416 25.7074 11.7508L25.7468 11.6977L25.701 11.65L24.5891 10.4921L24.5238 10.4241L24.469 10.5009C24.2926 10.7478 22.8138 12.735 19.3032 14.0697C17.6642 11.0688 15.8552 8.61446 15.5804 8.24797L15.5458 8.20188L15.4915 8.22119L13.5801 8.90121L13.4821 8.93608L13.5428 9.02059C13.5513 9.03247 13.5615 9.04668 13.5734 9.06317C13.9156 9.53874 15.6184 11.9054 17.2102 14.7237C12.5556 15.9448 8.48251 15.9265 8.03913 15.9175L7.96834 15.916L7.95984 15.9863L7.74848 17.7323L7.73809 17.8181L7.82454 17.82C8.26646 17.8292 13.1084 17.8932 18.1157 16.4107C18.3837 16.9244 18.6359 17.4454 18.8653 17.9665C18.7629 17.9954 18.6548 18.0263 18.5526 18.0628C13.3415 19.7541 10.5724 24.3339 10.3412 24.7224L10.3088 24.7768L10.3551 24.8198L11.6509 26.0236L11.7274 26.0947L11.7741 26.0013C11.953 25.6436 13.9689 21.744 19.6045 19.7764C19.605 19.7764 19.6054 19.7763 19.6059 19.7763C20.9908 23.3976 21.5714 26.4291 21.717 27.3024L21.7352 27.4115L21.832 27.3581L23.5137 26.43L23.5622 26.4032L23.5531 26.3486C23.4523 25.7442 22.9263 22.8422 21.6338 19.2749Z" fill="#EA4C89" stroke="#EA4C89" stroke-width="0.156522"/>
</svg>
