<svg width="100" height="101" viewBox="0 0 100 101" fill="none" xmlns="http://www.w3.org/2000/svg">
<rect y="0.704834" width="100" height="100" rx="27" fill="#FFCA28"/>
<path d="M81.802 5.70483H17.4343C10.567 5.70483 5 11.2719 5 18.1391V82.5068C5 89.3741 10.567 94.9411 17.4343 94.9411H81.802C88.6692 94.9411 94.2363 89.3741 94.2363 82.5068V18.1392C94.2363 11.2719 88.6693 5.70483 81.802 5.70483Z" fill="#FFCA28"/>
<path d="M58.6417 80.7698L64.8415 76.667C65.3275 78.1936 68.4044 81.819 72.2909 81.819C76.1774 81.819 77.9818 79.6964 77.9818 78.2889C77.9818 74.4539 74.0132 73.1018 72.1071 72.4525C71.7962 72.3466 71.5405 72.2594 71.3655 72.1833C71.2756 72.1442 71.14 72.0922 70.9658 72.0257C68.8459 71.2158 61.0245 68.2276 61.0245 59.5657C61.0245 50.0253 70.2317 48.9282 72.314 48.9282C73.6761 48.9282 80.2256 49.0951 83.4875 55.2248L77.4727 59.4228C76.1542 56.7513 73.9633 55.869 72.6148 55.869C69.2835 55.869 68.5894 58.311 68.5894 59.4228C68.5894 62.5421 72.2088 63.9403 75.2646 65.1207C76.0643 65.4295 76.8252 65.7234 77.4727 66.0295C80.804 67.6036 85.7085 70.1797 85.7085 78.2889C85.7085 82.3508 82.3017 88.9268 73.7251 88.9268C62.2043 88.9268 59.1506 82.01 58.6417 80.7698Z" fill="#3E3E3E"/>
<path d="M28.5674 81.5843L35.0294 77.484C35.5356 79.0097 37.5033 81.8228 40.3579 81.8228C43.2129 81.8228 44.6742 78.8906 44.6742 77.484V49.8306H52.6213V77.484C52.75 81.2983 50.6346 88.9269 41.2984 88.9269C32.7146 88.9269 29.1461 83.8255 28.5674 81.5843Z" fill="#3E3E3E"/>
</svg>
