<svg width="100" height="101" viewBox="0 0 100 101" fill="none" xmlns="http://www.w3.org/2000/svg">
<rect y="0.704834" width="100" height="100" rx="27" fill="#5A5A5A"/>
<path d="M49.9949 82.7048C49.0637 82.7048 48.1935 82.4528 47.3808 82.017L39.1218 77.086C37.8859 76.3947 38.5056 76.1427 38.878 76.0167C40.5576 75.4548 40.8691 75.3322 42.6062 74.3378C42.7959 74.2118 43.0431 74.2697 43.2327 74.3957L49.5649 78.2097C49.8155 78.3323 50.127 78.3323 50.3132 78.2097L75.0968 63.7812C75.3474 63.6586 75.4693 63.4066 75.4693 63.0933V34.2907C75.4693 33.9808 75.3474 33.7288 75.0968 33.6062L50.3132 19.239C50.066 19.113 49.7545 19.113 49.5649 19.239L24.7745 33.6028C24.5273 33.7254 24.4021 34.0421 24.4021 34.2873L24.4021 63.0865C24.4021 63.3351 24.5273 63.6518 24.7745 63.7744L31.5469 67.7144C35.2108 69.5805 37.5134 67.3909 37.5134 65.2115V36.7902C37.5134 36.4157 37.8215 36.0377 38.2584 36.0377H41.4278C41.7936 36.0377 42.1728 36.351 42.1728 36.7902V65.2149C42.1728 70.1492 39.5045 73.0268 34.8451 73.0268C33.4161 73.0268 32.2987 73.0268 29.1292 71.4603L22.6108 67.7178C21.8166 67.2535 21.1574 66.5877 20.6993 65.7869C20.2411 64.9861 20 64.0785 20 63.1546L20 34.352C20 32.479 20.9922 30.7287 22.6108 29.7922L47.3842 15.3637C48.1884 14.9311 49.0863 14.7048 49.9983 14.7048C50.9103 14.7048 51.8082 14.9311 52.6124 15.3637L77.3892 29.7922C79.0112 30.7253 80 32.479 80 34.352V63.1546C80 65.0242 79.0078 66.7745 77.3892 67.7178L52.6124 82.1429C51.7964 82.5175 50.8652 82.7048 49.9949 82.7048ZM57.6342 62.8992C46.7645 62.8992 44.5296 57.9001 44.5296 53.657C44.5296 53.2824 44.8411 52.9045 45.2746 52.9045H48.505C48.8775 52.9045 49.1856 53.153 49.1856 53.531C49.6834 56.8377 51.109 58.4654 57.6985 58.4654C62.9133 58.4654 65.1549 57.2735 65.1549 54.4641C65.1549 52.8398 64.5285 51.6547 56.3948 50.8442C49.6258 50.1631 45.4032 48.6546 45.4032 43.223C45.4032 38.166 49.6258 35.1659 56.7097 35.1659C64.6571 35.1659 68.5716 37.9208 69.066 43.9109C69.06 44.113 68.994 44.3087 68.8763 44.4728C68.7511 44.5954 68.5682 44.7214 68.382 44.7214H65.1549C64.9954 44.7179 64.8416 44.6612 64.7177 44.5601C64.5938 44.4589 64.507 44.3192 64.4709 44.1629C63.7226 40.7166 61.7992 39.5997 56.7097 39.5997C50.9905 39.5997 50.3065 41.5986 50.3065 43.097C50.3065 44.9052 51.109 45.4671 58.8193 46.4683C66.4586 47.4661 70.0615 48.9031 70.0615 54.2802C69.9938 59.7799 65.5274 62.8992 57.6342 62.8992Z" fill="#1FFF00"/>
</svg>
