<svg width="100" height="101" viewBox="0 0 100 101" fill="none" xmlns="http://www.w3.org/2000/svg">
<rect y="0.704834" width="100" height="100" rx="27" fill="white"/>
<path d="M49.813 31.7048C40.5296 31.7048 34.7274 36.3466 32.4065 45.63C35.8878 40.9883 39.9493 39.2477 44.5911 40.4081C47.2395 41.0702 49.1324 42.9915 51.2276 45.1183C54.6408 48.5828 58.5912 52.5927 67.2196 52.5927C76.503 52.5927 82.3052 47.9509 84.6261 38.6674C81.1448 43.3092 77.0833 45.0498 72.4415 43.8894C69.7931 43.2273 67.9002 41.306 65.805 39.1792C62.3918 35.7147 58.4414 31.7048 49.813 31.7048ZM32.4065 52.5927C23.123 52.5927 17.3209 57.2344 15 66.5179C18.4813 61.8761 22.5428 60.1355 27.1846 61.2959C29.8329 61.958 31.7259 63.8793 33.8211 66.0061C37.2343 69.4707 41.1847 73.4805 49.813 73.4805C59.0965 73.4805 64.8987 68.8387 67.2196 59.5553C63.7383 64.197 59.6767 65.9377 55.035 64.7772C52.3866 64.1151 50.4937 62.1938 48.3985 60.067C44.9852 56.6025 41.0349 52.5927 32.4065 52.5927Z" fill="url(#paint0_linear_25_43)"/>
<defs>
<linearGradient id="paint0_linear_25_43" x1="-178.406" y1="1368.53" x2="5834.95" y2="4835.68" gradientUnits="userSpaceOnUse">
<stop stop-color="#2298BD"/>
<stop offset="1" stop-color="#0ED7B5"/>
</linearGradient>
</defs>
</svg>
