<svg width="21" height="21" viewBox="0 0 21 21" fill="none" xmlns="http://www.w3.org/2000/svg">
<path d="M10.656 0.343506C8.64736 0.343704 6.6839 0.939511 5.01388 2.05559C3.34387 3.17166 2.0423 4.75788 1.27377 6.61367C0.505243 8.46945 0.304263 10.5115 0.696248 12.4815C1.08823 14.4515 2.05558 16.261 3.47596 17.6812C4.89634 19.1015 6.70597 20.0686 8.67601 20.4604C10.6461 20.8522 12.688 20.651 14.5437 19.8823C16.3995 19.1136 17.9855 17.8119 19.1015 16.1418C20.2174 14.4716 20.813 12.5081 20.813 10.4995C20.8098 7.80677 19.7386 5.22524 17.8345 3.32128C15.9303 1.41732 13.3487 0.346417 10.656 0.343506ZM16.433 8.87351L11.926 10.8045L15.161 14.6875C15.227 14.7661 15.2768 14.857 15.3076 14.955C15.3383 15.053 15.3494 15.1561 15.3401 15.2583C15.3308 15.3606 15.3013 15.46 15.2534 15.5508C15.2055 15.6416 15.1401 15.7221 15.061 15.7875C14.9017 15.9202 14.6962 15.9842 14.4898 15.9654C14.2833 15.9467 14.0928 15.8467 13.96 15.6875L10.656 11.7205L7.35098 15.6875C7.2179 15.8462 7.0274 15.9459 6.82111 15.9646C6.61481 15.9833 6.40949 15.9197 6.24998 15.7875C6.17111 15.7219 6.10594 15.6414 6.05818 15.5507C6.01042 15.4599 5.98101 15.3606 5.97163 15.2584C5.96225 15.1563 5.97308 15.0533 6.00351 14.9553C6.03394 14.8574 6.08337 14.7664 6.14898 14.6875L9.38698 10.8045L4.87998 8.87351C4.78281 8.83495 4.6943 8.77742 4.61962 8.70428C4.54493 8.63113 4.48556 8.54385 4.44498 8.44751C4.40541 8.35096 4.3853 8.24755 4.38581 8.14321C4.38633 8.03887 4.40746 7.93566 4.44798 7.83951C4.50918 7.69415 4.61332 7.57096 4.74647 7.48643C4.87961 7.4019 5.0354 7.36006 5.19298 7.36651C5.29749 7.36975 5.40025 7.39425 5.49498 7.43851L9.87498 9.31551V4.83551C9.87458 4.73283 9.89452 4.6311 9.93362 4.53616C9.97273 4.44123 10.0302 4.35497 10.1028 4.28237C10.1754 4.20977 10.2617 4.15226 10.3566 4.11315C10.4516 4.07404 10.5533 4.05411 10.656 4.05451C10.8632 4.05451 11.062 4.13676 11.2086 4.28319C11.3552 4.42963 11.4377 4.62828 11.438 4.83551V9.31551L15.817 7.43851C15.9118 7.39392 16.0146 7.36907 16.1193 7.36546C16.224 7.36185 16.3283 7.37956 16.426 7.41751C16.5234 7.45508 16.6124 7.51149 16.688 7.58351C16.7628 7.65643 16.8225 7.74347 16.8635 7.83959C16.9045 7.93571 16.9261 8.039 16.927 8.14351C16.9279 8.24797 16.9076 8.35152 16.8674 8.44794C16.8271 8.54435 16.7678 8.63163 16.693 8.70451C16.6184 8.77761 16.53 8.83507 16.433 8.87351Z" fill="#121315"/>
</svg>
