<svg width="36" height="36" viewBox="0 0 36 36" fill="none" xmlns="http://www.w3.org/2000/svg">
<g clip-path="url(#clip0_25_55)">
<path d="M36 18C36 8.05887 27.9411 0 18 0C8.05887 0 0 8.05887 0 18C0 27.9411 8.05887 36 18 36C27.9411 36 36 27.9411 36 18Z" fill="white"/>
<path fill-rule="evenodd" clip-rule="evenodd" d="M27.7 26H23.567V20.0238C23.567 18.4596 22.9206 17.3917 21.4989 17.3917C20.4115 17.3917 19.8068 18.1123 19.5253 18.8068C19.4198 19.0561 19.4363 19.4033 19.4363 19.7506V26H15.3418C15.3418 26 15.3946 15.4138 15.3418 14.4515H19.4363V16.2639C19.6782 15.4715 20.9866 14.3405 23.0745 14.3405C25.6648 14.3405 27.7 16.0016 27.7 19.5786V26ZM11.2012 13.007H11.1748C9.8554 13.007 9 12.1242 9 11.0051C9 9.86431 9.88068 9 11.2265 9C12.5711 9 13.3979 9.86214 13.4243 11.0019C13.4243 12.1209 12.5711 13.007 11.2012 13.007ZM9.47167 14.4515H13.1165V26H9.47167V14.4515Z" fill="#007EBB"/>
</g>
<defs>
<clipPath id="clip0_25_55">
<rect width="36" height="36" fill="white"/>
</clipPath>
</defs>
</svg>
