<svg width="100" height="101" viewBox="0 0 100 101" fill="none" xmlns="http://www.w3.org/2000/svg">
<rect y="0.704834" width="100" height="100" rx="27" fill="white"/>
<path d="M76.4105 63.8626C75.6331 64.1566 74.7751 64.156 73.9982 63.8608C73.2213 63.5656 72.5792 62.9963 72.1933 62.2603L64.5155 51.6427L63.4028 50.1584L54.4944 62.2736C54.1316 62.9788 53.5244 63.5276 52.7864 63.8176C52.0483 64.1076 51.2299 64.1189 50.4842 63.8493L61.9629 48.4492L51.2853 34.538C52.0531 34.2614 52.8927 34.2577 53.6629 34.5277C54.433 34.7976 55.0866 35.3247 55.5136 36.0202L63.4718 46.769L71.4744 36.0647C71.84 35.3721 72.4474 34.838 73.181 34.5639C73.9146 34.2898 74.7234 34.2949 75.4535 34.5781L71.3098 40.0772L65.6972 47.3833C65.5414 47.5223 65.4166 47.6927 65.3312 47.8833C65.2458 48.0739 65.2017 48.2804 65.2017 48.4893C65.2017 48.6982 65.2458 48.9047 65.3312 49.0953C65.4166 49.2859 65.5414 49.4563 65.6972 49.5953L76.3882 63.8648L76.4105 63.8626ZM23.0045 48.2579L23.9392 43.6401C26.5073 34.5091 36.9758 30.7103 44.1773 36.3629C48.3945 39.6766 49.4471 44.3678 49.2401 49.6554H25.4836C25.0986 59.098 31.9129 64.7995 40.6255 61.8864C42.0379 61.378 43.3021 60.5272 44.3049 59.4102C45.3077 58.2932 46.0178 56.9449 46.3715 55.4861C46.8322 54.0039 47.5911 53.7502 48.9842 54.1775C48.7521 55.9854 48.113 57.7171 47.115 59.2424C46.117 60.7677 44.7862 62.0468 43.2226 62.9836C40.6398 64.3963 37.6764 64.9563 34.7562 64.5834C31.8359 64.2104 29.1084 62.9237 26.9635 60.9072C24.8428 58.5202 23.561 55.505 23.3138 52.3215C23.3138 51.7985 23.1358 51.3089 23.0156 50.8394C23.0048 49.9796 22.9996 49.1199 23 48.2601L23.0045 48.2579ZM25.5125 47.6214H46.9969C46.8634 40.7759 42.5438 35.92 36.7821 35.8755C30.3684 35.7865 25.7796 40.5356 25.497 47.5902L25.5125 47.6214Z" fill="#0D0D0D"/>
</svg>
