<svg width="100" height="101" viewBox="0 0 100 101" fill="none" xmlns="http://www.w3.org/2000/svg">
<rect y="0.704834" width="100" height="100" rx="27" fill="white"/>
<path d="M51.8593 85.0512L50.0399 84.4294C50.0399 84.4294 50.2621 75.1543 46.9332 74.4887C44.7147 71.9143 47.289 -34.6878 55.2772 74.1333C55.2772 74.1333 52.5254 75.5087 52.0372 77.8614C51.5044 80.1694 51.8593 85.0512 51.8593 85.0512Z" fill="#A6A385"/>
<path d="M52.8365 76.0863C52.8365 76.0863 68.7696 65.6122 65.0409 43.821C61.4465 27.9778 52.9697 22.7853 52.0377 20.788C51.0171 19.3678 50.0404 16.8829 50.0404 16.8829L50.7065 60.952C50.7065 60.9968 49.3301 74.4435 52.8365 76.0863Z" fill="#499D4A"/>
<path d="M49.107 76.6628C49.107 76.6628 34.1502 66.4552 35.038 48.4815C35.8811 30.5074 46.4437 21.6757 48.4852 20.078C49.8169 18.6579 49.8611 18.125 49.9501 16.7048C50.8821 18.7021 50.7047 46.5732 50.8374 49.857C51.2366 62.5053 50.1275 74.2669 49.107 76.6628Z" fill="#58AA50"/>
</svg>
