<svg width="100" height="101" viewBox="0 0 100 101" fill="none" xmlns="http://www.w3.org/2000/svg">
<rect y="0.704834" width="100" height="100" rx="27" fill="white"/>
<path d="M31.1126 39.4847H46.3899V40.7023H32.513V49.8662H45.5624V51.0838H32.513V61.1449H46.5491V62.3625H31.1126V39.4847ZM47.7585 39.4847H49.3817L56.5748 49.5458L63.927 39.4847L73.9273 26.7048L57.4978 50.6032L65.964 62.3625H64.2772L56.5748 51.6606L48.8407 62.3625H47.1856L55.7155 50.6032L47.7585 39.4847ZM66.5687 40.7023V39.4847H83.9786V40.7023H75.9579V62.3625H74.5575V40.7023H66.5687ZM12 39.4847H13.7505L37.8893 75.7048L27.9139 62.3625L13.4641 41.215L13.4004 62.3625H12V39.4847ZM83.8375 60.7775C83.5513 60.7775 83.3368 60.5552 83.3368 60.2679C83.3368 59.9806 83.5513 59.7583 83.8375 59.7583C84.127 59.7583 84.3382 59.9806 84.3382 60.2679C84.3382 60.5552 84.127 60.7775 83.8375 60.7775ZM85.2135 59.4369H85.9629C85.9731 59.8438 86.2694 60.1174 86.7054 60.1174C87.1925 60.1174 87.4684 59.8233 87.4684 59.2727V55.7844H88.2314V59.2761C88.2314 60.2679 87.6592 60.839 86.7122 60.839C85.8232 60.839 85.2135 60.285 85.2135 59.4369ZM89.2294 59.3924H89.9856C90.0503 59.8609 90.5067 60.1585 91.1641 60.1585C91.7772 60.1585 92.2268 59.8404 92.2268 59.4027C92.2268 59.0265 91.9407 58.8007 91.2901 58.6469L90.6566 58.493C89.7676 58.2843 89.3622 57.8534 89.3622 57.1284C89.3622 56.2495 90.0775 55.6647 91.1505 55.6647C92.1485 55.6647 92.8774 56.2495 92.9217 57.0805H92.1791C92.1076 56.6257 91.7125 56.3418 91.1402 56.3418C90.5374 56.3418 90.1354 56.6325 90.1354 57.0771C90.1354 57.4294 90.3943 57.6311 91.0346 57.7816L91.5762 57.915C92.5844 58.151 93 58.5614 93 59.3035C93 60.2474 92.2711 60.839 91.1062 60.839C90.0162 60.839 89.2839 60.2747 89.2294 59.3924Z" fill="black"/>
</svg>
