<svg width="100" height="101" viewBox="0 0 100 101" fill="none" xmlns="http://www.w3.org/2000/svg">
<rect y="0.704834" width="100" height="100" rx="27" fill="white"/>
<path d="M51.0014 55.7505C54.402 55.7505 57.1587 52.9938 57.1587 49.5932C57.1587 46.1926 54.402 43.4359 51.0014 43.4359C47.6009 43.4359 44.8441 46.1926 44.8441 49.5932C44.8441 52.9938 47.6009 55.7505 51.0014 55.7505Z" fill="#33AADD"/>
<path fill-rule="evenodd" clip-rule="evenodd" d="M51.4538 36.6145C61.952 36.686 73.4058 37.4518 81.2681 44.463C81.4991 44.6692 81.7219 44.8837 81.9391 45.1051C83.794 46.9958 84.7634 50.0483 83.266 52.5604C80.1942 57.7181 73.3247 59.9676 66.6738 61.3522C56.727 63.423 46.3264 63.4395 36.3838 61.6162C30.6624 60.5657 24.8117 58.7246 20.7458 54.8732C19.1632 53.3744 17.8102 51.4027 18.0219 49.2081C18.3657 45.6579 21.7716 43.3795 24.6385 41.8367C32.6011 37.5522 42.3032 36.5938 51.4538 36.6145ZM50.6921 38.2273C40.759 38.2947 30.0079 38.9286 22.3381 45.2798C22.0699 45.5011 21.8114 45.7335 21.5626 45.9769C21.4017 46.1336 21.2463 46.2973 21.0964 46.465C19.7503 47.9775 19.2869 50.4071 20.5574 52.2235C21.8362 54.0509 23.7777 55.3695 25.777 56.4448C33.2542 60.4653 42.09 61.179 50.7045 61.2092C59.4261 61.2408 68.42 60.4461 76.1242 56.4627C79.1932 54.8745 82.6472 52.5425 82.5249 49.5395C82.4121 46.784 79.7254 45.0818 77.7137 43.8662C77.1692 43.5376 76.6096 43.2337 76.0417 42.9477C68.3939 39.1156 59.4316 38.2081 50.6921 38.2273Z" fill="#33AADD"/>
<path fill-rule="evenodd" clip-rule="evenodd" d="M64.9083 20.3717C68.7487 20.4693 70.7384 25.0866 71.001 28.4966C71.0533 29.1745 71.0725 29.8551 71.0643 30.5357C71.056 31.2727 71.0161 32.0097 70.9515 32.744C70.1416 41.8355 65.9905 50.4939 61.1023 58.4896C56.3214 66.3106 50.4914 74.1097 42.5604 77.7342C39.9382 78.9332 36.8197 79.673 34.4987 78.3351C31.3169 76.5022 30.9691 72.2149 31.0282 68.963C31.0433 68.1642 31.0956 67.3653 31.1781 66.5691C32.4004 54.7991 38.3666 43.6492 45.8329 34.0434C50.1889 28.4388 55.3713 22.8797 61.827 20.8667C62.8431 20.5491 63.6502 20.3566 64.9083 20.3717ZM64.7241 21.9832C60.2154 22.0547 56.1674 25.396 52.5828 28.8678C43.1585 37.9938 36.2133 50.1309 33.4193 62.8594C33.2034 63.8453 33.0219 64.838 32.8886 65.8376C32.7854 66.6118 32.7098 67.39 32.6699 68.171C32.6383 68.7925 32.6273 69.4154 32.6466 70.0383C32.6603 70.525 32.6919 71.0118 32.7456 71.4958C32.7854 71.8657 32.8391 72.2342 32.9064 72.5999C32.9573 72.8708 33.0164 73.1403 33.0852 73.4084C33.1416 73.6257 33.2048 73.8416 33.2763 74.0561C33.8387 75.7514 35.288 77.3712 37.2336 77.4248C41.7725 77.5486 46.046 74.2389 49.7407 70.6419C56.2266 64.3293 61.0597 56.3968 64.8355 48.0588C67.8825 41.3268 70.6696 34.009 69.1131 26.5991C69.054 26.3186 68.9852 26.0408 68.9069 25.7658C68.8422 25.5417 68.7694 25.3203 68.6896 25.1017C68.0846 23.4531 66.6615 21.9791 64.7241 21.9832Z" fill="#33AADD"/>
<path fill-rule="evenodd" clip-rule="evenodd" d="M37.3997 20.4321C42.3002 20.5269 46.7016 23.8531 50.6094 27.578C57.7401 34.3746 62.9996 43.0207 66.9898 52.1205C70.0808 59.1701 72.9243 67.0833 70.3971 74.5221C69.601 76.8665 67.5866 79.0115 64.9012 79.0665C59.9773 79.1655 55.4136 75.585 51.4536 71.7308C41.5192 62.059 34.1437 49.2907 31.6164 35.7496C31.4349 34.7816 31.2905 33.8054 31.1915 32.825C31.1104 32.0247 31.0595 31.2204 31.0458 30.416C31.0348 29.767 31.0485 29.118 31.0939 28.4717C31.1241 28.04 31.1681 27.611 31.2273 27.1834C31.2836 26.7818 31.3551 26.3817 31.4445 25.9857C31.5036 25.7231 31.5696 25.4632 31.6453 25.2047C32.3864 22.6706 34.3142 20.4128 37.3997 20.4321ZM37.2141 22.045C34.3444 22.1082 33.0313 25.4921 32.7673 27.8667C32.7137 28.3535 32.6807 28.8444 32.6655 29.3352C32.6463 29.9622 32.6545 30.5906 32.6862 31.2176C33.1372 40.2913 37.1934 49.0638 42.0884 57.0966C46.6975 64.6592 52.2635 72.1914 59.9195 76.0635C62.1305 77.1813 64.8173 78.06 66.7272 77.004C69.1225 75.6785 69.4167 72.5201 69.5446 70.1661C69.579 69.5253 69.5831 68.8818 69.5625 68.2397C69.5377 67.4339 69.4745 66.6295 69.3796 65.8293C68.4968 58.3534 65.1858 51.279 61.3825 44.5937C56.6498 36.2776 50.8514 27.9891 42.6453 23.6592C40.9458 22.7627 39.1061 22.0298 37.2141 22.045Z" fill="#33AADD"/>
</svg>
